<svg id="pattern-banner" xmlns="http://www.w3.org/2000/svg" width="355.53" height="19.95" viewBox="0 0 355.53 19.95">
  <g id="Group-2">
    <path id="Path" d="M55.23,0,49.56,19.95h3.15L58.38,0Z" fill="#14120d"/>
    <path id="Path-2" data-name="Path" d="M65.24,0,59.5,19.95h3.15L68.32,0Z" fill="#14120d"/>
    <path id="Path-3" data-name="Path" d="M75.18,0,69.44,19.95h3.15L78.26,0Z" fill="#14120d"/>
    <path id="Path-4" data-name="Path" d="M85.12,0,79.38,19.95h3.15L88.2,0Z" fill="#14120d"/>
    <path id="Path-5" data-name="Path" d="M95.06,0,89.32,19.95h3.15L98.14,0Z" fill="#14120d"/>
    <path id="Path-6" data-name="Path" d="M105,0,99.26,19.95h3.15L108.08,0Z" fill="#14120d"/>
    <path id="Path-7" data-name="Path" d="M114.94,0,109.2,19.95h3.15L118.09,0Z" fill="#14120d"/>
    <path id="Path-8" data-name="Path" d="M124.88,0l-5.74,19.95h3.15L128.03,0Z" fill="#14120d"/>
    <path id="Path-9" data-name="Path" d="M134.82,0l-5.74,19.95h3.15L137.97,0Z" fill="#14120d"/>
    <path id="Path-10" data-name="Path" d="M144.76,0l-5.67,19.95h3.08L147.91,0Z" fill="#14120d"/>
    <path id="Path-11" data-name="Path" d="M154.7,0l-5.67,19.95h3.08L157.85,0Z" fill="#14120d"/>
    <path id="Path-12" data-name="Path" d="M164.64,0l-5.67,19.95h3.08L167.79,0Z" fill="#14120d"/>
    <path id="Path-13" data-name="Path" d="M174.58,0l-5.67,19.95h3.08L177.73,0Z" fill="#14120d"/>
    <path id="Path-14" data-name="Path" d="M35.84,0,30.1,19.95h3.15L38.92,0Z" fill="#14120d"/>
    <path id="Path-15" data-name="Path" d="M45.78,0,40.04,19.95h3.15L48.86,0Z" fill="#14120d"/>
    <path id="Path-16" data-name="Path" d="M5.74,0,0,19.95H3.15L8.82,0Z" fill="#14120d"/>
    <path id="Path-17" data-name="Path" d="M15.68,0,9.94,19.95h3.15L18.76,0Z" fill="#14120d"/>
    <path id="Path-18" data-name="Path" d="M25.62,0,19.88,19.95h3.15L28.7,0Z" fill="#14120d"/>
  </g>
  <g id="Group-2-Copy" transform="translate(177.8)">
    <path id="Path-19" data-name="Path" d="M55.23,0,49.56,19.95h3.15L58.38,0Z" fill="#14120d"/>
    <path id="Path-20" data-name="Path" d="M65.24,0,59.5,19.95h3.15L68.32,0Z" fill="#14120d"/>
    <path id="Path-21" data-name="Path" d="M75.18,0,69.44,19.95h3.15L78.26,0Z" fill="#14120d"/>
    <path id="Path-22" data-name="Path" d="M85.12,0,79.38,19.95h3.15L88.2,0Z" fill="#14120d"/>
    <path id="Path-23" data-name="Path" d="M95.06,0,89.32,19.95h3.15L98.14,0Z" fill="#14120d"/>
    <path id="Path-24" data-name="Path" d="M105,0,99.26,19.95h3.15L108.08,0Z" fill="#14120d"/>
    <path id="Path-25" data-name="Path" d="M114.94,0,109.2,19.95h3.15L118.09,0Z" fill="#14120d"/>
    <path id="Path-26" data-name="Path" d="M124.88,0l-5.74,19.95h3.15L128.03,0Z" fill="#14120d"/>
    <path id="Path-27" data-name="Path" d="M134.82,0l-5.74,19.95h3.15L137.97,0Z" fill="#14120d"/>
    <path id="Path-28" data-name="Path" d="M144.76,0l-5.67,19.95h3.08L147.91,0Z" fill="#14120d"/>
    <path id="Path-29" data-name="Path" d="M154.7,0l-5.67,19.95h3.08L157.85,0Z" fill="#14120d"/>
    <path id="Path-30" data-name="Path" d="M164.64,0l-5.67,19.95h3.08L167.79,0Z" fill="#14120d"/>
    <path id="Path-31" data-name="Path" d="M174.58,0l-5.67,19.95h3.08L177.73,0Z" fill="#14120d"/>
    <path id="Path-32" data-name="Path" d="M35.84,0,30.1,19.95h3.15L38.92,0Z" fill="#14120d"/>
    <path id="Path-33" data-name="Path" d="M45.78,0,40.04,19.95h3.15L48.86,0Z" fill="#14120d"/>
    <path id="Path-34" data-name="Path" d="M5.74,0,0,19.95H3.15L8.82,0Z" fill="#14120d"/>
    <path id="Path-35" data-name="Path" d="M15.68,0,9.94,19.95h3.15L18.76,0Z" fill="#14120d"/>
    <path id="Path-36" data-name="Path" d="M25.62,0,19.88,19.95h3.15L28.7,0Z" fill="#14120d"/>
  </g>
</svg>
