<svg id="pattern-customize" xmlns="http://www.w3.org/2000/svg" width="253.9" height="28.5" viewBox="0 0 253.9 28.5">
  <g id="Group-2">
    <path id="Path" d="M78.9,0,70.8,28.5h4.5L83.4,0Z" fill="#14120d"/>
    <path id="Path-2" data-name="Path" d="M93.2,0,85,28.5h4.5L97.6,0Z" fill="#14120d"/>
    <path id="Path-3" data-name="Path" d="M107.4,0,99.2,28.5h4.5L111.8,0Z" fill="#14120d"/>
    <path id="Path-4" data-name="Path" d="M121.6,0l-8.2,28.5h4.5L126,0Z" fill="#14120d"/>
    <path id="Path-5" data-name="Path" d="M135.8,0l-8.2,28.5h4.5L140.2,0Z" fill="#14120d"/>
    <path id="Path-6" data-name="Path" d="M150,0l-8.2,28.5h4.5L154.4,0Z" fill="#14120d"/>
    <path id="Path-7" data-name="Path" d="M164.2,0,156,28.5h4.5L168.7,0Z" fill="#14120d"/>
    <path id="Path-8" data-name="Path" d="M178.4,0l-8.2,28.5h4.5L182.9,0Z" fill="#14120d"/>
    <path id="Path-9" data-name="Path" d="M192.6,0l-8.2,28.5h4.5L197.1,0Z" fill="#14120d"/>
    <path id="Path-10" data-name="Path" d="M206.8,0l-8.1,28.5h4.4L211.3,0Z" fill="#14120d"/>
    <path id="Path-11" data-name="Path" d="M221,0l-8.1,28.5h4.4L225.5,0Z" fill="#14120d"/>
    <path id="Path-12" data-name="Path" d="M235.2,0l-8.1,28.5h4.4L239.7,0Z" fill="#14120d"/>
    <path id="Path-13" data-name="Path" d="M249.4,0l-8.1,28.5h4.4L253.9,0Z" fill="#14120d"/>
    <path id="Path-14" data-name="Path" d="M51.2,0,43,28.5h4.5L55.6,0Z" fill="#14120d"/>
    <path id="Path-15" data-name="Path" d="M65.4,0,57.2,28.5h4.5L69.8,0Z" fill="#14120d"/>
    <path id="Path-16" data-name="Path" d="M8.2,0,0,28.5H4.5L12.6,0Z" fill="#14120d"/>
    <path id="Path-17" data-name="Path" d="M22.4,0,14.2,28.5h4.5L26.8,0Z" fill="#14120d"/>
    <path id="Path-18" data-name="Path" d="M36.6,0,28.4,28.5h4.5L41,0Z" fill="#14120d"/>
  </g>
</svg>
