<svg xmlns="http://www.w3.org/2000/svg" xmlns:xlink="http://www.w3.org/1999/xlink" width="245.001" height="131.456" viewBox="0 0 245.001 131.456">
  <defs>
    <clipPath id="clip-path">
      <path id="Path_29" data-name="Path 29" d="M21.184-15.88V-22.8c7.726-.927,13.289-5.563,13.289-13.1,0-3.894-1.051-7.046-3.4-9.271-1.854-1.731-4.388-2.843-8.406-3.461l-2.349-.371V-59.763a12.346,12.346,0,0,1,7.6,2.967l5.439-5.377a18.061,18.061,0,0,0-12.176-5.068v-5.5H14.942v5.563c-8.035.865-12.856,6.119-12.856,13.227,0,3.708,1.051,6.49,3.152,8.591a14.769,14.769,0,0,0,8.529,3.708l1.978.247V-30.22c-3.708-.124-7.231-1.113-9.827-3.708L.355-28.365c4.017,4.079,8.653,5.624,14.587,5.81v6.675Zm-5.439-33.5a7.286,7.286,0,0,1-4.079-1.731,4.247,4.247,0,0,1-1.3-3.152c0-2.72,1.792-4.945,5.377-5.439Zm4.574,19.037V-40.974c1.607.247,3.152.433,4.388,1.607a4.9,4.9,0,0,1,1.36,3.708C26.067-32.63,24.027-30.776,20.319-30.343Z" transform="translate(-0.355 72.743)" fill="#fff"/>
    </clipPath>
    <clipPath id="clip-path-2">
      <path id="Path_28" data-name="Path 28" d="M-37,422.168H938.982V-332H-37Z" transform="translate(37 332)" fill="#fff"/>
    </clipPath>
    <clipPath id="clip-path-3">
      <path id="Path_32" data-name="Path 32" d="M62.906,15.755,91.461-57.8V-72.258h-56v28.308H50.792V-57.8h23.24L45.476,15.755Zm68.68,0,18.666-38.073c3.956-8.035,7.293-15.452,7.293-23.487,0-17.43-11.867-27.2-27.442-27.2s-27.443,10.136-27.443,27.442c0,16.317,11.373,26.083,23.24,26.083a17.411,17.411,0,0,0,6.552-1.113L114.157,15.755ZM130.1-32.825c-6.8,0-11.373-5.068-11.373-12.856,0-8.159,4.821-12.856,11.373-12.856s11.373,4.7,11.373,12.856S136.655-32.825,130.1-32.825Z" transform="translate(-35.464 73)" fill="#fff"/>
    </clipPath>
    <clipPath id="clip-path-5">
      <path id="Path_35" data-name="Path 35" d="M152.4-27.952l9.333-19.037c1.978-4.017,3.647-7.726,3.647-11.743,0-8.715-5.934-13.6-13.721-13.6s-13.721,5.068-13.721,13.721c0,8.159,5.686,13.041,11.62,13.041a8.705,8.705,0,0,0,3.276-.556l-9.147,18.171Zm-.742-24.29c-3.4,0-5.686-2.534-5.686-6.428,0-4.079,2.41-6.428,5.686-6.428s5.686,2.349,5.686,6.428S154.929-52.242,151.654-52.242Zm34.3,24.29,9.333-19.037c1.978-4.017,3.647-7.726,3.647-11.743,0-8.715-5.933-13.6-13.721-13.6s-13.721,5.068-13.721,13.721c0,8.159,5.686,13.041,11.62,13.041a8.7,8.7,0,0,0,3.276-.556l-9.148,18.171Zm-.742-24.29c-3.4,0-5.686-2.534-5.686-6.428,0-4.079,2.41-6.428,5.686-6.428s5.686,2.349,5.686,6.428S188.491-52.242,185.215-52.242Z" transform="translate(-137.932 72.329)" fill="#fff"/>
    </clipPath>
    <clipPath id="clip-path-7">
      <path id="Path_38" data-name="Path 38" d="M15.762-77.981v-6.1H22.1V-86.7H15.762v-3.694H23.21V-93.01H12.625v15.029Zm13.342,0V-93.01H25.967v15.029Zm6.91,0v-5.995h2.257l3.137,5.995h3.634l-3.589-6.48a4.078,4.078,0,0,0,2.934-3.947c0-2.512-1.941-4.6-5.214-4.6h-6.3v15.029Zm2.957-8.443H36.015v-3.968h2.957a2.039,2.039,0,0,1,2.28,1.984A2.039,2.039,0,0,1,38.971-86.424Zm13.117,8.57c3.363,0,5.958-1.646,5.958-4.559A4.057,4.057,0,0,0,56.8-85.6a5.509,5.509,0,0,0-3.069-1.161l-1.9-.253a2.861,2.861,0,0,1-1.49-.591,1.4,1.4,0,0,1-.474-1.076c0-1.034.812-1.9,2.483-1.9a4.675,4.675,0,0,1,3.3,1.034l1.986-1.836a7.167,7.167,0,0,0-5.191-1.752c-3.476,0-5.6,1.879-5.6,4.559A3.828,3.828,0,0,0,48-85.622a5.639,5.639,0,0,0,3.115,1.245l1.941.253a2.483,2.483,0,0,1,1.422.528,1.614,1.614,0,0,1,.5,1.266c0,1.2-.993,1.857-2.844,1.857a5.486,5.486,0,0,1-3.882-1.266l-2.031,1.9A7.855,7.855,0,0,0,52.088-77.855Zm15.08-.127V-90.392h4.2V-93.01H59.833v2.617h4.2v12.411Zm14.181.127c3.363,0,5.958-1.646,5.958-4.559A4.057,4.057,0,0,0,86.066-85.6,5.51,5.51,0,0,0,83-86.762l-1.9-.253a2.861,2.861,0,0,1-1.49-.591,1.4,1.4,0,0,1-.474-1.076c0-1.034.813-1.9,2.483-1.9a4.675,4.675,0,0,1,3.3,1.034L86.9-91.384a7.167,7.167,0,0,0-5.191-1.752c-3.476,0-5.6,1.879-5.6,4.559a3.828,3.828,0,0,0,1.151,2.955,5.639,5.639,0,0,0,3.115,1.245l1.941.253a2.483,2.483,0,0,1,1.422.528,1.614,1.614,0,0,1,.5,1.266c0,1.2-.993,1.857-2.844,1.857a5.486,5.486,0,0,1-3.882-1.266l-2.031,1.9A7.855,7.855,0,0,0,81.349-77.855Zm19.526-.127V-80.6H93.428V-84.25H99.77v-2.617H93.428v-3.525h7.448V-93.01H90.291v15.029Zm9.235,0V-90.392h4.2V-93.01H102.775v2.617h4.2v12.411Zm17.409.127a6.02,6.02,0,0,0,4.333-1.646c1.551-1.451,1.6-3.228,1.6-5.645v-.35c0-2.6.023-4.475-1.6-5.995a6.02,6.02,0,0,0-4.333-1.646,6.075,6.075,0,0,0-4.356,1.646c-1.477,1.382-1.574,3.06-1.58,5.3V-84.8c.005,2.244.1,3.922,1.58,5.3A6.075,6.075,0,0,0,127.519-77.855Zm0-2.617a2.748,2.748,0,0,1-2.031-.8c-.586-.609-.755-1.276-.767-3.9V-85.5c0-2.892.158-3.588.767-4.222a2.748,2.748,0,0,1,2.031-.8,2.694,2.694,0,0,1,2.009.8c.609.633.79,1.33.79,4.222s-.181,3.588-.79,4.221A2.694,2.694,0,0,1,127.519-80.472Zm12.3,2.491v-6.1h6.342V-86.7h-6.342v-3.694h7.448V-93.01H136.686v15.029Zm25.872,0V-80.6h-7.29V-93.01h-3.137v15.029Zm4.089,0,.97-2.66h5.71l.948,2.66h3.273L174.817-93.01h-2.46l-5.846,15.029Zm5.845-5.129h-3.995l2.031-5.467Zm11.492,5.256c3.363,0,5.958-1.646,5.958-4.559a4.057,4.057,0,0,0-1.241-3.187,5.51,5.51,0,0,0-3.069-1.161l-1.9-.253a2.861,2.861,0,0,1-1.49-.591,1.4,1.4,0,0,1-.474-1.076c0-1.034.812-1.9,2.483-1.9a4.675,4.675,0,0,1,3.3,1.034l1.986-1.836a7.167,7.167,0,0,0-5.191-1.752c-3.476,0-5.6,1.879-5.6,4.559a3.828,3.828,0,0,0,1.151,2.955,5.639,5.639,0,0,0,3.115,1.245l1.941.253a2.483,2.483,0,0,1,1.422.528,1.613,1.613,0,0,1,.5,1.266c0,1.2-.993,1.857-2.844,1.857a5.486,5.486,0,0,1-3.882-1.266l-2.031,1.9A7.855,7.855,0,0,0,187.121-77.855Zm12.3-.127v-6.29h5.439v6.29H208V-93.01h-3.137v6.142h-5.439V-93.01h-3.137v15.029Zm22.934,0V-80.6h-7.448V-84.25h6.342v-2.617h-6.342v-3.525h7.448V-93.01H211.775v15.029Zm7.519.127c3.363,0,5.958-1.646,5.958-4.559A4.057,4.057,0,0,0,234.6-85.6a5.51,5.51,0,0,0-3.069-1.161l-1.9-.253a2.861,2.861,0,0,1-1.49-.591,1.4,1.4,0,0,1-.474-1.076c0-1.034.813-1.9,2.483-1.9a4.675,4.675,0,0,1,3.3,1.034l1.986-1.836a7.167,7.167,0,0,0-5.191-1.752c-3.476,0-5.6,1.879-5.6,4.559a3.829,3.829,0,0,0,1.151,2.955,5.64,5.64,0,0,0,3.115,1.245l1.941.253a2.482,2.482,0,0,1,1.422.528,1.613,1.613,0,0,1,.5,1.266c0,1.2-.993,1.857-2.844,1.857a5.486,5.486,0,0,1-3.882-1.266l-2.031,1.9A7.855,7.855,0,0,0,229.879-77.855Z" transform="translate(-12.625 93.136)" fill="#fff"/>
    </clipPath>
    <clipPath id="clip-path-8">
      <path id="Path_37" data-name="Path 37" d="M-37,422.168H1006.584V-332H-37Z" transform="translate(37 332)" fill="#fff"/>
    </clipPath>
  </defs>
  <g id="price_banner_sm" transform="translate(-0.354 93.136)">
    <g id="Group_41" data-name="Group 41" transform="translate(0.355 -53.938)" clip-path="url(#clip-path)">
      <g id="Group_40" data-name="Group 40" transform="translate(-46.033 -319.482)" clip-path="url(#clip-path-2)">
        <path id="Path_27" data-name="Path 27" d="M-4.645-77.743H41.8V-8.557H-4.645Z" transform="translate(44.516 391.064)" fill="#fff"/>
      </g>
    </g>
    <g id="Group_43" data-name="Group 43" transform="translate(49.387 -50.436)" clip-path="url(#clip-path-3)">
      <g id="Group_42" data-name="Group 42" transform="translate(-89.297 -319.166)" clip-path="url(#clip-path-2)">
        <path id="Path_30" data-name="Path 30" d="M30.464-78H164.869V23.078H30.464Z" transform="translate(52.672 391.004)" fill="#fff"/>
      </g>
    </g>
    <g id="Group_45" data-name="Group 45" transform="translate(184.351 -54.045)" clip-path="url(#clip-path-5)">
      <g id="Group_44" data-name="Group 44" transform="translate(-215.569 -319.992)" clip-path="url(#clip-path-2)">
        <path id="Path_33" data-name="Path 33" d="M132.932-77.329h73.327v56.7H132.932Z" transform="translate(76.475 391.16)" fill="#fff"/>
      </g>
    </g>
    <g id="Group_47" data-name="Group 47" transform="translate(15.475 -93.136)" clip-path="url(#clip-path-7)">
      <g id="Group_46" data-name="Group 46" transform="translate(-65.389 -294.352)" clip-path="url(#clip-path-8)">
        <path id="Path_36" data-name="Path 36" d="M7.625-98.136H244.014v27.6H7.625Z" transform="translate(51.175 386.327)" fill="#fff"/>
      </g>
    </g>
  </g>
</svg>
