<svg id="Group_51" data-name="Group 51" xmlns="http://www.w3.org/2000/svg" xmlns:xlink="http://www.w3.org/1999/xlink" width="422.751" height="226.297" viewBox="0 0 422.751 226.297">
  <defs>
    <clipPath id="clip-path">
      <path id="Path_29" data-name="Path 29" d="M38.55,31.528V18.835c14.167-1.7,24.368-10.2,24.368-24.028,0-7.14-1.927-12.921-6.234-17-3.4-3.173-8.047-5.214-15.414-6.347l-4.307-.68V-48.942c4.647.34,10.2,1.813,13.941,5.44l9.974-9.86c-6.12-5.894-13.147-8.727-22.328-9.294V-72.743H27.1v10.2C12.369-60.956,3.528-51.322,3.528-38.288c0,6.8,1.927,11.9,5.78,15.754,3.4,3.4,8.84,5.894,15.641,6.8l3.627.453V5.234c-6.8-.227-13.261-2.04-18.021-6.8L.355,8.634C7.722,16.114,16.222,18.948,27.1,19.288V31.528ZM28.576-29.9a13.361,13.361,0,0,1-7.48-3.173,7.788,7.788,0,0,1-2.38-5.78c0-4.987,3.287-9.067,9.86-9.974ZM36.963,5.007V-14.487c2.947.453,5.78.793,8.047,2.947A8.985,8.985,0,0,1,47.5-4.74C47.5.814,43.764,4.214,36.963,5.007Z" transform="translate(-0.355 72.743)" fill="#fff"/>
    </clipPath>
    <clipPath id="clip-path-2">
      <path id="Path_28" data-name="Path 28" d="M-37,1050.946H1752.7V-332H-37Z" transform="translate(37 332)" fill="#fff"/>
    </clipPath>
    <clipPath id="clip-path-3">
      <path id="Path_32" data-name="Path 32" d="M85.786,89.754,138.148-45.119V-71.64H35.464v51.909H63.572V-45.119h42.615L53.824,89.754Zm125.942,0,34.228-69.817C253.21,5.2,259.33-8.4,259.33-23.131,259.33-55.093,237.569-73,209.008-73s-50.322,18.588-50.322,50.322c0,29.921,20.854,47.829,42.615,47.829a31.927,31.927,0,0,0,12.014-2.04L179.767,89.754ZM209.008.67c-12.467,0-20.854-9.294-20.854-23.574,0-14.961,8.84-23.574,20.854-23.574s20.854,8.614,20.854,23.574S221.022.67,209.008.67Z" transform="translate(-35.464 73)" fill="#fff"/>
    </clipPath>
    <clipPath id="clip-path-5">
      <path id="Path_35" data-name="Path 35" d="M164.454,9.048,181.568-25.86c3.627-7.367,6.687-14.167,6.687-21.534,0-15.981-10.881-24.934-25.161-24.934s-25.161,9.294-25.161,25.161c0,14.961,10.427,23.914,21.308,23.914a15.963,15.963,0,0,0,6.007-1.02L148.473,9.048Zm-1.36-44.542c-6.234,0-10.427-4.647-10.427-11.787,0-7.48,4.42-11.787,10.427-11.787s10.427,4.307,10.427,11.787S169.1-35.494,163.094-35.494ZM226,9.048,243.111-25.86c3.627-7.367,6.687-14.167,6.687-21.534,0-15.981-10.88-24.934-25.161-24.934s-25.161,9.294-25.161,25.161c0,14.961,10.427,23.914,21.308,23.914a15.962,15.962,0,0,0,6.007-1.02L210.016,9.048Zm-1.36-44.542c-6.234,0-10.427-4.647-10.427-11.787,0-7.48,4.42-11.787,10.427-11.787s10.427,4.307,10.427,11.787S230.643-35.494,224.636-35.494Z" transform="translate(-137.933 72.329)" fill="#fff"/>
    </clipPath>
    <clipPath id="clip-path-7">
      <path id="Path_38" data-name="Path 38" d="M18.005-65.346V-76.532H28.881v-4.8H18.005V-88.1H30.778v-4.8H12.625v27.558Zm22.881,0V-92.9h-5.38v27.558Zm11.85,0V-76.338h3.871l5.38,10.992h6.232L62.065-77.228A7.421,7.421,0,0,0,67.1-84.466c0-4.606-3.329-8.438-8.941-8.438h-10.8v27.558Zm5.07-15.482h-5.07V-88.1h5.07a3.593,3.593,0,0,1,3.909,3.638A3.593,3.593,0,0,1,57.807-80.828ZM80.3-65.114c5.767,0,10.218-3.019,10.218-8.36a7.717,7.717,0,0,0-2.129-5.845,9.113,9.113,0,0,0-5.264-2.129l-3.251-.464A4.74,4.74,0,0,1,77.321-83a2.66,2.66,0,0,1-.813-1.974c0-1.9,1.393-3.484,4.258-3.484a7.669,7.669,0,0,1,5.651,1.9l3.406-3.367c-2.361-2.284-5.109-3.213-8.9-3.213-5.961,0-9.6,3.445-9.6,8.36A7.282,7.282,0,0,0,73.3-79.357a9.347,9.347,0,0,0,5.341,2.284l3.329.464a4.105,4.105,0,0,1,2.438.968,3.068,3.068,0,0,1,.852,2.322c0,2.206-1.7,3.406-4.877,3.406a9.021,9.021,0,0,1-6.657-2.322l-3.483,3.484C72.948-66,76.122-65.114,80.3-65.114Zm25.862-.232V-88.1h7.2v-4.8H93.584v4.8h7.2v22.759Zm24.32.232c5.767,0,10.218-3.019,10.218-8.36a7.717,7.717,0,0,0-2.129-5.845,9.113,9.113,0,0,0-5.264-2.129l-3.251-.464A4.74,4.74,0,0,1,127.5-83a2.66,2.66,0,0,1-.813-1.974c0-1.9,1.393-3.484,4.258-3.484a7.669,7.669,0,0,1,5.651,1.9l3.406-3.367c-2.361-2.284-5.109-3.213-8.9-3.213-5.961,0-9.6,3.445-9.6,8.36a7.282,7.282,0,0,0,1.974,5.419,9.347,9.347,0,0,0,5.341,2.284l3.329.464a4.105,4.105,0,0,1,2.438.968,3.068,3.068,0,0,1,.852,2.322c0,2.206-1.7,3.406-4.877,3.406a9.021,9.021,0,0,1-6.657-2.322l-3.483,3.484C123.13-66,126.3-65.114,130.484-65.114Zm33.487-.232v-4.8H151.2v-6.7h10.876v-4.8H151.2V-88.1H163.97v-4.8H145.818v27.558Zm15.837,0V-88.1h7.2v-4.8H167.228v4.8h7.2v22.759Zm29.855.232a9.965,9.965,0,0,0,7.431-3.019c2.66-2.66,2.746-5.92,2.748-10.351v-.641c0-4.761.039-8.206-2.748-10.992a9.965,9.965,0,0,0-7.431-3.019,10.053,10.053,0,0,0-7.47,3.019c-2.533,2.533-2.7,5.611-2.709,9.726v2.533c.009,4.115.176,7.193,2.709,9.726A10.053,10.053,0,0,0,209.662-65.114Zm0-4.8a4.559,4.559,0,0,1-3.483-1.471c-1-1.117-1.294-2.34-1.315-7.147v-.594c0-5.3.271-6.58,1.316-7.741a4.559,4.559,0,0,1,3.483-1.471,4.473,4.473,0,0,1,3.445,1.471c1.045,1.161,1.355,2.438,1.355,7.741s-.31,6.58-1.355,7.741A4.473,4.473,0,0,1,209.662-69.913Zm21.1,4.567V-76.532H241.64v-4.8H230.763V-88.1h12.773v-4.8H225.384v27.558Zm44.37,0v-4.8h-12.5V-92.9h-5.38v27.558Zm7.012,0,1.664-4.877H293.6l1.626,4.877h5.612L290.777-92.9h-4.219L276.533-65.346Zm10.025-9.405h-6.851L288.8-84.776Zm19.708,9.638c5.767,0,10.218-3.019,10.218-8.36a7.717,7.717,0,0,0-2.129-5.845,9.114,9.114,0,0,0-5.264-2.129l-3.251-.464A4.74,4.74,0,0,1,308.9-83a2.66,2.66,0,0,1-.813-1.974c0-1.9,1.393-3.484,4.258-3.484a7.669,7.669,0,0,1,5.651,1.9l3.406-3.367c-2.361-2.284-5.109-3.213-8.9-3.213-5.961,0-9.6,3.445-9.6,8.36a7.282,7.282,0,0,0,1.974,5.419,9.347,9.347,0,0,0,5.341,2.284l3.329.464a4.1,4.1,0,0,1,2.438.968,3.068,3.068,0,0,1,.852,2.322c0,2.206-1.7,3.406-4.877,3.406a9.021,9.021,0,0,1-6.657-2.322l-3.484,3.484C304.524-66,307.7-65.114,311.878-65.114Zm21.1-.232V-76.88h9.328v11.534h5.38V-92.9h-5.38v11.263h-9.328V-92.9H327.6v27.558Zm39.331,0v-4.8H359.537v-6.7h10.876v-4.8H359.537V-88.1H372.31v-4.8H354.157v27.558Zm12.9.232c5.767,0,10.218-3.019,10.218-8.36a7.718,7.718,0,0,0-2.129-5.845,9.114,9.114,0,0,0-5.264-2.129l-3.251-.464A4.74,4.74,0,0,1,382.225-83a2.66,2.66,0,0,1-.813-1.974c0-1.9,1.393-3.484,4.258-3.484a7.669,7.669,0,0,1,5.651,1.9l3.406-3.367c-2.361-2.284-5.109-3.213-8.9-3.213-5.961,0-9.6,3.445-9.6,8.36a7.283,7.283,0,0,0,1.974,5.419,9.348,9.348,0,0,0,5.342,2.284l3.329.464a4.1,4.1,0,0,1,2.438.968,3.068,3.068,0,0,1,.852,2.322c0,2.206-1.7,3.406-4.877,3.406a9.021,9.021,0,0,1-6.657-2.322l-3.484,3.484C377.851-66,381.025-65.114,385.205-65.114Z" transform="translate(-12.625 93.136)" fill="#fff"/>
    </clipPath>
  </defs>
  <g id="Group_41" data-name="Group 41" transform="translate(0 64.123)" clip-path="url(#clip-path)">
    <g id="Group_40" data-name="Group 40" transform="translate(-84.412 -585.847)" clip-path="url(#clip-path-2)">
      <path id="Path_27" data-name="Path 27" d="M-4.645-77.743h85.16V49.126H-4.645Z" transform="translate(77.758 652.292)" fill="#fff"/>
    </g>
  </g>
  <g id="Group_43" data-name="Group 43" transform="translate(79.336 63.543)" clip-path="url(#clip-path-3)">
    <g id="Group_42" data-name="Group 42" transform="translate(-163.747 -585.267)" clip-path="url(#clip-path-2)">
      <path id="Path_30" data-name="Path 30" d="M30.464-78H276.927V107.351H30.464Z" transform="translate(121.985 651.968)" fill="#fff"/>
    </g>
  </g>
  <g id="Group_45" data-name="Group 45" transform="translate(310.886 65.058)" clip-path="url(#clip-path-5)">
    <g id="Group_44" data-name="Group 44" transform="translate(-395.298 -586.782)" clip-path="url(#clip-path-2)">
      <path id="Path_33" data-name="Path 33" d="M132.933-77.329H267.395V26.645H132.933Z" transform="translate(251.067 652.813)" fill="#fff"/>
    </g>
  </g>
  <g id="Group_47" data-name="Group 47" transform="translate(27.727 0)" clip-path="url(#clip-path-7)">
    <g id="Group_46" data-name="Group 46" transform="translate(-112.139 -539.764)" clip-path="url(#clip-path-2)">
      <path id="Path_36" data-name="Path 36" d="M7.625-98.136h405.4v50.62H7.625Z" transform="translate(93.215 626.602)" fill="#fff"/>
    </g>
  </g>
</svg>
