<svg xmlns="http://www.w3.org/2000/svg" xmlns:xlink="http://www.w3.org/1999/xlink" width="278.375" height="149.013" viewBox="0 0 278.375 149.013">
  <defs>
    <clipPath id="clip-path">
      <path id="Path_29" data-name="Path 29" d="M25.506-4.082v-8.359c9.329-1.119,16.046-6.717,16.046-15.822,0-4.7-1.269-8.508-4.1-11.195-2.239-2.09-5.3-3.433-10.15-4.179l-2.836-.448V-57.07c3.06.224,6.717,1.194,9.18,3.582l6.568-6.493c-4.03-3.881-8.657-5.747-14.7-6.12v-6.642H17.968v6.717c-9.7,1.045-15.523,7.389-15.523,15.971,0,4.478,1.269,7.836,3.806,10.374C8.49-37.442,12.072-35.8,16.55-35.2l2.388.3V-21.4c-4.478-.149-8.732-1.343-11.866-4.478L.355-19.157c4.851,4.926,10.448,6.791,17.613,7.015v8.06Zm-6.568-40.45a8.8,8.8,0,0,1-4.926-2.09,5.128,5.128,0,0,1-1.567-3.806c0-3.284,2.164-5.971,6.493-6.568Zm5.523,22.987V-34.382c1.94.3,3.806.522,5.3,1.94A5.916,5.916,0,0,1,31.4-27.964C31.4-24.307,28.939-22.068,24.461-21.546Z" transform="translate(-0.355 72.743)" fill="#fff"/>
    </clipPath>
    <clipPath id="clip-path-2">
      <path id="Path_28" data-name="Path 28" d="M-37,578.649H1141.487V-332H-37Z" transform="translate(37 332)" fill="#fff"/>
    </clipPath>
    <clipPath id="clip-path-3">
      <path id="Path_32" data-name="Path 32" d="M68.6,34.171l34.48-88.812V-72.1H35.464v34.181H53.972V-54.641H82.034L47.554,34.171Zm82.931,0L174.07-11.8c4.776-9.7,8.807-18.658,8.807-28.36C182.876-61.208,168.547-73,149.74-73S116.6-60.76,116.6-39.864c0,19.7,13.732,31.495,28.061,31.495a21.023,21.023,0,0,0,7.911-1.343L130.485,34.171ZM149.74-24.489c-8.21,0-13.732-6.12-13.732-15.523,0-9.851,5.821-15.523,13.732-15.523s13.732,5.672,13.732,15.523S157.651-24.489,149.74-24.489Z" transform="translate(-35.464 73)" fill="#fff"/>
    </clipPath>
    <clipPath id="clip-path-5">
      <path id="Path_35" data-name="Path 35" d="M155.4-18.744,166.666-41.73c2.388-4.851,4.4-9.329,4.4-14.18,0-10.523-7.165-16.419-16.568-16.419s-16.568,6.12-16.568,16.568c0,9.851,6.866,15.747,14.031,15.747a10.512,10.512,0,0,0,3.956-.672L144.873-18.744Zm-.9-29.33c-4.1,0-6.866-3.06-6.866-7.762,0-4.926,2.91-7.762,6.866-7.762s6.866,2.836,6.866,7.762S158.456-48.074,154.5-48.074Zm41.421,29.33L207.191-41.73c2.388-4.851,4.4-9.329,4.4-14.18,0-10.523-7.165-16.419-16.568-16.419s-16.568,6.12-16.568,16.568c0,9.851,6.866,15.747,14.031,15.747a10.511,10.511,0,0,0,3.955-.672L185.4-18.744Zm-.9-29.33c-4.1,0-6.866-3.06-6.866-7.762,0-4.926,2.911-7.762,6.866-7.762s6.866,2.836,6.866,7.762S198.981-48.074,195.026-48.074Z" transform="translate(-137.932 72.329)" fill="#fff"/>
    </clipPath>
    <clipPath id="clip-path-7">
      <path id="Path_38" data-name="Path 38" d="M16.168-74.837V-82.2H23.33v-3.16H16.168v-4.46h8.411v-3.16H12.625v18.147Zm15.067,0V-92.983H27.692v18.147Zm7.8,0v-7.238h2.549l3.543,7.238h4.1l-4.052-7.825a4.887,4.887,0,0,0,3.313-4.766c0-3.033-2.192-5.556-5.888-5.556H35.5v18.147Zm3.339-10.195H39.038v-4.792h3.339a2.366,2.366,0,0,1,2.574,2.4A2.366,2.366,0,0,1,42.377-85.032ZM57.189-74.684c3.8,0,6.729-1.988,6.729-5.505a5.082,5.082,0,0,0-1.4-3.849,6,6,0,0,0-3.466-1.4l-2.141-.306a3.121,3.121,0,0,1-1.682-.714,1.751,1.751,0,0,1-.535-1.3c0-1.249.918-2.294,2.8-2.294A5.05,5.05,0,0,1,61.216-88.8l2.243-2.217A7.775,7.775,0,0,0,57.6-93.136c-3.925,0-6.321,2.268-6.321,5.505a4.8,4.8,0,0,0,1.3,3.568,6.155,6.155,0,0,0,3.517,1.5l2.192.306a2.7,2.7,0,0,1,1.606.637,2.02,2.02,0,0,1,.561,1.529c0,1.453-1.121,2.243-3.211,2.243a5.94,5.94,0,0,1-4.384-1.529L50.563-77.08C52.347-75.27,54.437-74.684,57.189-74.684Zm17.03-.153V-89.823h4.741v-3.16H65.935v3.16h4.741v14.986Zm16.014.153c3.8,0,6.729-1.988,6.729-5.505a5.082,5.082,0,0,0-1.4-3.849,6,6,0,0,0-3.466-1.4l-2.141-.306a3.121,3.121,0,0,1-1.682-.714,1.751,1.751,0,0,1-.535-1.3c0-1.249.918-2.294,2.8-2.294A5.05,5.05,0,0,1,94.26-88.8L96.5-91.021a7.775,7.775,0,0,0-5.862-2.115c-3.925,0-6.321,2.268-6.321,5.505a4.8,4.8,0,0,0,1.3,3.568,6.155,6.155,0,0,0,3.517,1.5l2.192.306a2.7,2.7,0,0,1,1.606.637,2.02,2.02,0,0,1,.561,1.529c0,1.453-1.121,2.243-3.211,2.243A5.94,5.94,0,0,1,85.9-79.373L83.607-77.08C85.391-75.27,87.481-74.684,90.233-74.684Zm22.051-.153V-78h-8.411v-4.409h7.162v-3.16h-7.162v-4.256h8.411v-3.16H100.33v18.147Zm10.428,0V-89.823h4.741v-3.16H114.429v3.16h4.741v14.986Zm19.659.153a6.562,6.562,0,0,0,4.894-1.988c1.752-1.752,1.808-3.9,1.81-6.816v-.422c0-3.135.025-5.4-1.81-7.238a6.562,6.562,0,0,0-4.894-1.988,6.62,6.62,0,0,0-4.919,1.988c-1.668,1.668-1.778,3.695-1.784,6.4v1.668c.006,2.71.116,4.736,1.784,6.4A6.62,6.62,0,0,0,142.371-74.684Zm0-3.16a3,3,0,0,1-2.294-.968c-.662-.735-.852-1.541-.866-4.706v-.391c0-3.492.178-4.333.867-5.1a3,3,0,0,1,2.294-.968,2.946,2.946,0,0,1,2.268.968c.688.765.892,1.606.892,5.1s-.2,4.333-.892,5.1A2.946,2.946,0,0,1,142.371-77.844Zm13.895,3.007V-82.2h7.162v-3.16h-7.162v-4.46h8.411v-3.16H152.723v18.147Zm29.217,0V-78H177.25V-92.983h-3.543v18.147Zm4.618,0,1.1-3.211h6.448l1.07,3.211h3.7l-6.627-18.147h-2.778l-6.6,18.147Zm6.6-6.193H192.19l2.294-6.6Zm12.977,6.346c3.8,0,6.729-1.988,6.729-5.505a5.081,5.081,0,0,0-1.4-3.849,6,6,0,0,0-3.466-1.4l-2.141-.306a3.121,3.121,0,0,1-1.682-.714,1.751,1.751,0,0,1-.535-1.3c0-1.249.917-2.294,2.8-2.294a5.05,5.05,0,0,1,3.721,1.249l2.243-2.217a7.775,7.775,0,0,0-5.862-2.115c-3.925,0-6.321,2.268-6.321,5.505a4.8,4.8,0,0,0,1.3,3.568,6.155,6.155,0,0,0,3.517,1.5l2.192.306a2.7,2.7,0,0,1,1.606.637,2.02,2.02,0,0,1,.561,1.529c0,1.453-1.121,2.243-3.211,2.243a5.94,5.94,0,0,1-4.384-1.529l-2.294,2.294C204.836-75.27,206.926-74.684,209.678-74.684Zm13.895-.153v-7.6h6.142v7.6h3.543V-92.983h-3.543v7.417h-6.142v-7.417H220.03v18.147Zm25.9,0V-78h-8.411v-4.409h7.162v-3.16h-7.162v-4.256h8.411v-3.16H237.519v18.147Zm8.492.153c3.8,0,6.728-1.988,6.728-5.505a5.082,5.082,0,0,0-1.4-3.849,6,6,0,0,0-3.466-1.4l-2.141-.306A3.121,3.121,0,0,1,256-86.459a1.752,1.752,0,0,1-.535-1.3c0-1.249.918-2.294,2.8-2.294A5.05,5.05,0,0,1,261.99-88.8l2.243-2.217a7.775,7.775,0,0,0-5.862-2.115c-3.925,0-6.321,2.268-6.321,5.505a4.8,4.8,0,0,0,1.3,3.568,6.155,6.155,0,0,0,3.517,1.5l2.192.306a2.7,2.7,0,0,1,1.606.637,2.02,2.02,0,0,1,.561,1.529c0,1.453-1.121,2.243-3.211,2.243a5.94,5.94,0,0,1-4.384-1.529l-2.294,2.294C253.121-75.27,255.211-74.684,257.963-74.684Z" transform="translate(-12.625 93.136)" fill="#fff"/>
    </clipPath>
  </defs>
  <g id="Group_67" data-name="Group 67" transform="translate(-0.354 93.136)">
    <g id="Group_41" data-name="Group 41" transform="translate(0.355 -50.912)" clip-path="url(#clip-path)">
      <g id="Group_40" data-name="Group 40" transform="translate(-55.584 -385.771)" clip-path="url(#clip-path-2)">
        <path id="Path_27" data-name="Path 27" d="M-4.645-77.743H51.432V5.8H-4.645Z" transform="translate(52.789 456.074)" fill="#fff"/>
      </g>
    </g>
    <g id="Group_43" data-name="Group 43" transform="translate(52.596 -51.294)" clip-path="url(#clip-path-3)">
      <g id="Group_42" data-name="Group 42" transform="translate(-107.825 -385.389)" clip-path="url(#clip-path-2)">
        <path id="Path_30" data-name="Path 30" d="M30.464-78H192.756V44.051H30.464Z" transform="translate(69.921 455.949)" fill="#fff"/>
      </g>
    </g>
    <g id="Group_45" data-name="Group 45" transform="translate(205.069 -50.296)" clip-path="url(#clip-path-5)">
      <g id="Group_44" data-name="Group 44" transform="translate(-260.297 -386.387)" clip-path="url(#clip-path-2)">
        <path id="Path_33" data-name="Path 33" d="M132.932-77.329h88.541V-8.864H132.932Z" transform="translate(119.925 456.276)" fill="#fff"/>
      </g>
    </g>
    <g id="Group_47" data-name="Group 47" transform="translate(18.613 -93.136)" clip-path="url(#clip-path-7)">
      <g id="Group_46" data-name="Group 46" transform="translate(-73.842 -355.426)" clip-path="url(#clip-path-2)">
        <path id="Path_36" data-name="Path 36" d="M7.625-98.136H274.572V-64.8H7.625Z" transform="translate(58.777 446.123)" fill="#fff"/>
      </g>
    </g>
  </g>
</svg>
