<svg id="price_footer_sm" xmlns="http://www.w3.org/2000/svg" xmlns:xlink="http://www.w3.org/1999/xlink" width="300" height="161.131" viewBox="0 0 300 161.131">
  <defs>
    <clipPath id="clip-path">
      <path id="Path_29" data-name="Path 29" d="M27.551,1.5V-7.537C37.639-8.747,44.9-14.8,44.9-24.645c0-5.084-1.372-9.2-4.439-12.105-2.421-2.26-5.73-3.712-10.975-4.519l-3.067-.484V-55.8c3.309.242,7.263,1.291,9.926,3.874l7.1-7.021c-4.358-4.2-9.361-6.214-15.9-6.617v-7.182H19.4v7.263C8.909-64.35,2.615-57.491,2.615-48.21c0,4.842,1.372,8.474,4.116,11.217,2.421,2.421,6.295,4.2,11.137,4.842l2.582.323v14.607c-4.842-.161-9.442-1.453-12.831-4.842L.355-14.8C5.6-9.474,11.653-7.456,19.4-7.214V1.5Zm-7.1-43.74a9.514,9.514,0,0,1-5.326-2.26,5.545,5.545,0,0,1-1.695-4.116c0-3.551,2.34-6.456,7.021-7.1Zm5.972,24.856V-31.263c2.1.323,4.116.565,5.73,2.1a6.4,6.4,0,0,1,1.775,4.842C33.926-20.368,31.263-17.947,26.421-17.382Z" transform="translate(-0.355 72.743)" fill="#fff"/>
    </clipPath>
    <clipPath id="clip-path-2">
      <path id="Path_28" data-name="Path 28" d="M-37,652.7H1237.322V-332H-37Z" transform="translate(37 332)" fill="#fff"/>
    </clipPath>
    <clipPath id="clip-path-3">
      <path id="Path_32" data-name="Path 32" d="M71.295,42.886l37.284-96.034V-72.032H35.464v36.961H55.477V-53.148H85.821L48.537,42.886Zm89.675,0L185.341-6.825c5.165-10.491,9.523-20.175,9.523-30.666C194.864-60.249,179.369-73,159.033-73S123.2-59.765,123.2-37.169c0,21.305,14.849,34.056,30.343,34.056A22.733,22.733,0,0,0,162.1-4.566L138.212,42.886Zm-1.937-63.431c-8.877,0-14.849-6.617-14.849-16.786,0-10.653,6.295-16.786,14.849-16.786s14.849,6.133,14.849,16.786S167.587-20.544,159.033-20.544Z" transform="translate(-35.464 73)" fill="#fff"/>
    </clipPath>
    <clipPath id="clip-path-5">
      <path id="Path_35" data-name="Path 35" d="M156.816-14.386,169-39.242c2.582-5.246,4.761-10.088,4.761-15.333,0-11.379-7.747-17.754-17.916-17.754s-17.915,6.617-17.915,17.916c0,10.653,7.424,17.028,15.172,17.028a11.366,11.366,0,0,0,4.277-.726L145.438-14.386ZM155.848-46.1c-4.439,0-7.424-3.309-7.424-8.393,0-5.326,3.147-8.393,7.424-8.393s7.425,3.067,7.425,8.393S160.125-46.1,155.848-46.1Zm44.789,31.715,12.186-24.856c2.582-5.246,4.761-10.088,4.761-15.333,0-11.379-7.747-17.754-17.915-17.754s-17.916,6.617-17.916,17.916c0,10.653,7.425,17.028,15.172,17.028a11.366,11.366,0,0,0,4.277-.726L189.258-14.386ZM199.669-46.1c-4.439,0-7.425-3.309-7.425-8.393,0-5.326,3.147-8.393,7.425-8.393s7.424,3.067,7.424,8.393S203.946-46.1,199.669-46.1Z" transform="translate(-137.933 72.329)" fill="#fff"/>
    </clipPath>
    <clipPath id="clip-path-7">
      <path id="Path_38" data-name="Path 38" d="M16.442-73.349v-7.965h7.715v-3.417H16.442v-4.823H25.5v-3.417H12.625v19.622Zm16.232,0V-92.971H28.857v19.622Zm8.407,0v-7.827h2.746l3.817,7.827h4.421L47.7-81.809a5.282,5.282,0,0,0,3.569-5.154c0-3.28-2.361-6.008-6.343-6.008H37.263v19.622Zm3.6-11.024h-3.6v-5.181h3.6a2.553,2.553,0,0,1,2.773,2.591A2.553,2.553,0,0,1,44.677-84.372ZM60.634-73.183c4.091,0,7.249-2.15,7.249-5.953a5.506,5.506,0,0,0-1.51-4.161,6.452,6.452,0,0,0-3.734-1.516l-2.306-.331a3.356,3.356,0,0,1-1.812-.772,1.9,1.9,0,0,1-.577-1.406c0-1.35.988-2.48,3.02-2.48a5.427,5.427,0,0,1,4.009,1.35l2.416-2.4a8.358,8.358,0,0,0-6.315-2.287c-4.228,0-6.809,2.453-6.809,5.953a5.2,5.2,0,0,0,1.4,3.858A6.619,6.619,0,0,0,59.453-81.7l2.361.331a2.907,2.907,0,0,1,1.73.689,2.189,2.189,0,0,1,.6,1.654c0,1.571-1.208,2.425-3.46,2.425a6.385,6.385,0,0,1-4.723-1.654L53.5-75.774C55.417-73.817,57.669-73.183,60.634-73.183Zm18.346-.165V-89.554h5.107v-3.417H70.057v3.417h5.107v16.205Zm17.252.165c4.091,0,7.249-2.15,7.249-5.953a5.506,5.506,0,0,0-1.51-4.161,6.452,6.452,0,0,0-3.734-1.516l-2.306-.331a3.356,3.356,0,0,1-1.812-.772,1.9,1.9,0,0,1-.577-1.406c0-1.35.988-2.48,3.02-2.48a5.427,5.427,0,0,1,4.009,1.35l2.416-2.4a8.358,8.358,0,0,0-6.315-2.287c-4.228,0-6.809,2.453-6.809,5.953a5.2,5.2,0,0,0,1.4,3.858A6.619,6.619,0,0,0,95.052-81.7l2.361.331a2.907,2.907,0,0,1,1.73.689,2.189,2.189,0,0,1,.6,1.654c0,1.571-1.208,2.425-3.46,2.425a6.385,6.385,0,0,1-4.723-1.654l-2.471,2.48C91.016-73.817,93.267-73.183,96.232-73.183Zm23.755-.165v-3.417h-9.061v-4.768h7.715v-3.417h-7.715v-4.6h9.061v-3.417H107.11v19.622Zm11.235,0V-89.554h5.107v-3.417H122.3v3.417h5.107v16.205Zm21.179.165a7.056,7.056,0,0,0,5.272-2.15c1.887-1.894,1.948-4.215,1.949-7.37v-.456c0-3.39.027-5.843-1.949-7.827a7.056,7.056,0,0,0-5.272-2.15,7.118,7.118,0,0,0-5.3,2.15c-1.8,1.8-1.915,4-1.922,6.925v1.8c.007,2.93.125,5.121,1.922,6.925A7.118,7.118,0,0,0,152.4-73.183Zm0-3.417a3.228,3.228,0,0,1-2.471-1.047c-.713-.795-.918-1.666-.933-5.089v-.423c0-3.776.192-4.685.934-5.512a3.228,3.228,0,0,1,2.471-1.047,3.168,3.168,0,0,1,2.444,1.047c.741.827.961,1.736.961,5.512s-.22,4.685-.961,5.512A3.168,3.168,0,0,1,152.4-76.6Zm14.969,3.252v-7.965h7.715v-3.417H167.37v-4.823h9.061v-3.417H163.553v19.622Zm31.475,0v-3.417h-8.869V-92.971H186.16v19.622Zm4.974,0L205-76.821h6.947l1.153,3.473h3.981l-7.139-19.622h-2.993l-7.111,19.622Zm7.111-6.7h-4.86l2.471-7.138Zm13.98,6.862c4.091,0,7.249-2.15,7.249-5.953a5.506,5.506,0,0,0-1.51-4.161,6.453,6.453,0,0,0-3.734-1.516l-2.306-.331a3.356,3.356,0,0,1-1.812-.772,1.9,1.9,0,0,1-.577-1.406c0-1.35.988-2.48,3.02-2.48a5.427,5.427,0,0,1,4.009,1.35l2.416-2.4a8.358,8.358,0,0,0-6.315-2.287c-4.228,0-6.809,2.453-6.809,5.953a5.2,5.2,0,0,0,1.4,3.858A6.619,6.619,0,0,0,223.73-81.7l2.361.331a2.906,2.906,0,0,1,1.73.689,2.189,2.189,0,0,1,.6,1.654c0,1.571-1.208,2.425-3.46,2.425a6.385,6.385,0,0,1-4.723-1.654l-2.471,2.48C219.694-73.817,221.946-73.183,224.911-73.183Zm14.969-.165v-8.213H246.5v8.213h3.816V-92.971H246.5v8.02H239.88v-8.02h-3.816v19.622Zm27.9,0v-3.417H258.72v-4.768h7.715v-3.417H258.72v-4.6h9.061v-3.417H254.9v19.622Zm9.148.165c4.091,0,7.249-2.15,7.249-5.953a5.507,5.507,0,0,0-1.51-4.161,6.453,6.453,0,0,0-3.734-1.516l-2.306-.331a3.356,3.356,0,0,1-1.812-.772,1.9,1.9,0,0,1-.577-1.406c0-1.35.988-2.48,3.02-2.48a5.427,5.427,0,0,1,4.009,1.35l2.416-2.4a8.357,8.357,0,0,0-6.315-2.287c-4.228,0-6.809,2.453-6.809,5.953a5.2,5.2,0,0,0,1.4,3.858,6.619,6.619,0,0,0,3.789,1.626l2.361.331a2.906,2.906,0,0,1,1.73.689,2.189,2.189,0,0,1,.6,1.654c0,1.571-1.208,2.425-3.46,2.425a6.385,6.385,0,0,1-4.723-1.654l-2.471,2.48C271.712-73.817,273.963-73.183,276.929-73.183Z" transform="translate(-12.625 93.136)" fill="#fff"/>
    </clipPath>
    <clipPath id="clip-path-8">
      <path id="Path_37" data-name="Path 37" d="M-37,652.7H1232.587V-332H-37Z" transform="translate(37 332)" fill="#fff"/>
    </clipPath>
  </defs>
  <g id="Group_41" data-name="Group 41" transform="translate(0 45.658)" clip-path="url(#clip-path)">
    <g id="Group_40" data-name="Group 40" transform="translate(-60.104 -417.143)" clip-path="url(#clip-path-2)">
      <path id="Path_27" data-name="Path 27" d="M-4.645-77.743H55.992V12.592H-4.645Z" transform="translate(56.704 486.841)" fill="#fff"/>
    </g>
  </g>
  <g id="Group_43" data-name="Group 43" transform="translate(56.086 45.245)" clip-path="url(#clip-path-3)">
    <g id="Group_42" data-name="Group 42" transform="translate(-116.593 -416.729)" clip-path="url(#clip-path-2)">
      <path id="Path_30" data-name="Path 30" d="M30.464-78h175.49V53.976H30.464Z" transform="translate(78.085 486.684)" fill="#fff"/>
    </g>
  </g>
  <g id="Group_45" data-name="Group 45" transform="translate(220.348 46.324)" clip-path="url(#clip-path-5)">
    <g id="Group_44" data-name="Group 44" transform="translate(-281.465 -417.808)" clip-path="url(#clip-path-2)">
      <path id="Path_33" data-name="Path 33" d="M132.933-77.329h95.741V-3.3H132.933Z" transform="translate(140.488 487.093)" fill="#fff"/>
    </g>
  </g>
  <g id="Group_47" data-name="Group 47" transform="translate(19.743 0)" clip-path="url(#clip-path-7)">
    <g id="Group_46" data-name="Group 46" transform="translate(-79.55 -384.33)" clip-path="url(#clip-path-8)">
      <path id="Path_36" data-name="Path 36" d="M7.625-98.136H295.208v36.043H7.625Z" transform="translate(63.91 474.421)" fill="#fff"/>
    </g>
  </g>
</svg>
