<svg id="Group_51" data-name="Group 51" xmlns="http://www.w3.org/2000/svg" xmlns:xlink="http://www.w3.org/1999/xlink" width="346" height="185" viewBox="0 0 346 185">
  <defs>
    <clipPath id="clip-path">
      <path id="Path_29" data-name="Path 29" d="M31.744,12.947V2.515c11.643-1.4,20.025-8.383,20.025-19.746,0-5.868-1.583-10.618-5.123-13.971-2.794-2.608-6.613-4.285-12.667-5.216l-3.539-.559V-53.183c3.819.279,8.383,1.49,11.456,4.471l8.2-8.1c-5.03-4.843-10.8-7.172-18.349-7.638v-8.29H22.336v8.383c-12.108,1.3-19.373,9.221-19.373,19.932,0,5.589,1.583,9.78,4.75,12.947,2.794,2.794,7.265,4.843,12.854,5.588l2.981.373V-8.662c-5.588-.186-10.9-1.677-14.809-5.588L.355-5.867C6.409.28,13.395,2.608,22.336,2.888V12.947Zm-8.2-50.483A10.98,10.98,0,0,1,17.4-40.143a6.4,6.4,0,0,1-1.956-4.75c0-4.1,2.7-7.451,8.1-8.2ZM30.44-8.848v-16.02c2.422.373,4.75.652,6.613,2.422A7.384,7.384,0,0,1,39.1-16.858C39.1-12.294,36.028-9.5,30.44-8.848Z" transform="translate(-0.355 72.743)" fill="#fff"/>
    </clipPath>
    <clipPath id="clip-path-2">
      <path id="Path_28" data-name="Path 28" d="M-37,804.5H1433.771V-332H-37Z" transform="translate(37 332)" fill="#fff"/>
    </clipPath>
    <clipPath id="clip-path-3">
      <path id="Path_32" data-name="Path 32" d="M76.818,60.751,119.85-50.087v-21.8H35.464v42.659h23.1V-50.087H93.584L50.553,60.751Zm103.5,0L208.446,3.376c5.961-12.108,10.991-23.285,10.991-35.394C219.437-58.284,201.554-73,178.082-73s-41.355,15.275-41.355,41.355c0,24.589,17.138,39.306,35.021,39.306a26.238,26.238,0,0,0,9.873-1.677l-27.57,54.767Zm-2.235-73.209c-10.246,0-17.138-7.638-17.138-19.373,0-12.295,7.265-19.373,17.138-19.373s17.138,7.079,17.138,19.373S187.955-12.458,178.082-12.458Z" transform="translate(-35.464 73)" fill="#fff"/>
    </clipPath>
    <clipPath id="clip-path-5">
      <path id="Path_35" data-name="Path 35" d="M159.728-5.454l14.064-28.688c2.981-6.054,5.5-11.643,5.5-17.7,0-13.133-8.942-20.491-20.678-20.491s-20.677,7.638-20.677,20.677C137.933-39.357,146.5-32,155.443-32a13.119,13.119,0,0,0,4.937-.838L146.595-5.454Zm-1.118-36.6c-5.123,0-8.569-3.819-8.569-9.687,0-6.147,3.632-9.687,8.569-9.687s8.569,3.539,8.569,9.687S163.546-42.058,158.61-42.058ZM210.3-5.454l14.064-28.688c2.981-6.054,5.5-11.643,5.5-17.7,0-13.133-8.942-20.491-20.677-20.491s-20.677,7.638-20.677,20.677c0,12.295,8.569,19.653,17.511,19.653a13.118,13.118,0,0,0,4.936-.838L197.17-5.454Zm-1.118-36.6c-5.123,0-8.569-3.819-8.569-9.687,0-6.147,3.633-9.687,8.569-9.687s8.569,3.539,8.569,9.687S214.122-42.058,209.186-42.058Z" transform="translate(-137.933 72.329)" fill="#fff"/>
    </clipPath>
    <clipPath id="clip-path-7">
      <path id="Path_38" data-name="Path 38" d="M17.026-70.3v-9.193h8.9v-3.944h-8.9V-89H27.476v-3.944H12.625V-70.3Zm18.719,0V-92.946h-4.4V-70.3Zm9.695,0v-9.034h3.166l4.4,9.034h5.1l-5.035-9.765a6.1,6.1,0,0,0,4.116-5.948c0-3.785-2.723-6.934-7.315-6.934H41.039V-70.3Zm4.148-12.723H45.441V-89h4.148a2.945,2.945,0,0,1,3.2,2.99A2.945,2.945,0,0,1,49.589-83.021Zm18.4,12.914c4.718,0,8.36-2.481,8.36-6.871a6.358,6.358,0,0,0-1.742-4.8A7.438,7.438,0,0,0,70.3-83.53l-2.66-.382a3.869,3.869,0,0,1-2.09-.891,2.191,2.191,0,0,1-.665-1.622c0-1.559,1.14-2.863,3.483-2.863a6.256,6.256,0,0,1,4.623,1.559L75.781-90.5a9.634,9.634,0,0,0-7.283-2.64c-4.876,0-7.853,2.831-7.853,6.871a6,6,0,0,0,1.615,4.453,7.63,7.63,0,0,0,4.37,1.877l2.723.382a3.351,3.351,0,0,1,1.995.8,2.528,2.528,0,0,1,.7,1.908c0,1.813-1.393,2.8-3.99,2.8a7.36,7.36,0,0,1-5.446-1.908L59.758-73.1C61.975-70.839,64.571-70.107,67.991-70.107ZM89.149-70.3V-89h5.89v-3.944H78.858V-89h5.89v18.7Zm19.9.191c4.718,0,8.36-2.481,8.36-6.871a6.358,6.358,0,0,0-1.742-4.8,7.438,7.438,0,0,0-4.306-1.749l-2.66-.382a3.869,3.869,0,0,1-2.09-.891,2.191,2.191,0,0,1-.665-1.622c0-1.559,1.14-2.863,3.483-2.863a6.256,6.256,0,0,1,4.623,1.559l2.787-2.767a9.634,9.634,0,0,0-7.283-2.64c-4.876,0-7.853,2.831-7.853,6.871a6,6,0,0,0,1.615,4.453,7.63,7.63,0,0,0,4.37,1.877l2.723.382a3.351,3.351,0,0,1,1.995.8,2.528,2.528,0,0,1,.7,1.908c0,1.813-1.393,2.8-3.99,2.8a7.36,7.36,0,0,1-5.446-1.908l-2.85,2.863C103.029-70.839,105.625-70.107,109.045-70.107Zm27.4-.191v-3.944H125.991v-5.5h8.9v-3.944h-8.9V-89h10.449v-3.944H121.59V-70.3Zm12.956,0V-89h5.89v-3.944H139.106V-89H145v18.7Zm24.424.191a8.134,8.134,0,0,0,6.08-2.481c2.176-2.186,2.246-4.865,2.248-8.507v-.527c0-3.912.032-6.743-2.248-9.034a8.134,8.134,0,0,0-6.08-2.481,8.205,8.205,0,0,0-6.111,2.481c-2.073,2.082-2.209,4.611-2.216,7.993v2.081c.008,3.382.144,5.911,2.216,7.993A8.205,8.205,0,0,0,173.821-70.107Zm0-3.944a3.722,3.722,0,0,1-2.85-1.209c-.822-.918-1.059-1.923-1.076-5.873v-.488c0-4.358.222-5.407,1.077-6.362a3.722,3.722,0,0,1,2.85-1.209,3.652,3.652,0,0,1,2.818,1.209c.855.954,1.108,2,1.108,6.362s-.253,5.407-1.108,6.362A3.652,3.652,0,0,1,173.821-74.051ZM191.084-70.3v-9.193h8.9v-3.944h-8.9V-89h10.449v-3.944H186.682V-70.3Zm36.3,0v-3.944H217.155v-18.7h-4.4V-70.3Zm5.737,0,1.362-4.008h8.011l1.33,4.008h4.591L240.18-92.946h-3.451l-8.2,22.647Zm8.2-7.729h-5.6l2.85-8.238Zm16.123,7.92c4.718,0,8.36-2.481,8.36-6.871a6.358,6.358,0,0,0-1.741-4.8,7.439,7.439,0,0,0-4.306-1.749l-2.66-.382A3.869,3.869,0,0,1,255-84.8a2.191,2.191,0,0,1-.665-1.622c0-1.559,1.14-2.863,3.483-2.863a6.255,6.255,0,0,1,4.623,1.559l2.786-2.767a9.634,9.634,0,0,0-7.283-2.64c-4.876,0-7.853,2.831-7.853,6.871a6,6,0,0,0,1.615,4.453,7.63,7.63,0,0,0,4.37,1.877l2.723.382a3.351,3.351,0,0,1,1.995.8,2.528,2.528,0,0,1,.7,1.908c0,1.813-1.393,2.8-3.99,2.8a7.36,7.36,0,0,1-5.446-1.908L249.21-73.1C251.427-70.839,254.023-70.107,257.443-70.107Zm17.263-.191v-9.479h7.631V-70.3h4.4V-92.946h-4.4v9.256h-7.631v-9.256h-4.4V-70.3Zm32.177,0v-3.944H296.433v-5.5h8.9v-3.944h-8.9V-89h10.449v-3.944H292.032V-70.3Zm10.55.191c4.718,0,8.359-2.481,8.359-6.871a6.359,6.359,0,0,0-1.741-4.8,7.439,7.439,0,0,0-4.306-1.749l-2.66-.382a3.869,3.869,0,0,1-2.09-.891,2.191,2.191,0,0,1-.665-1.622c0-1.559,1.14-2.863,3.483-2.863a6.256,6.256,0,0,1,4.623,1.559l2.786-2.767a9.634,9.634,0,0,0-7.283-2.64c-4.876,0-7.853,2.831-7.853,6.871a6,6,0,0,0,1.615,4.453,7.631,7.631,0,0,0,4.37,1.877l2.723.382a3.35,3.35,0,0,1,1.995.8,2.528,2.528,0,0,1,.7,1.908c0,1.813-1.393,2.8-3.99,2.8a7.36,7.36,0,0,1-5.446-1.908L309.2-73.1C311.416-70.839,314.013-70.107,317.432-70.107Z" transform="translate(-12.625 93.136)" fill="#fff"/>
    </clipPath>
    <clipPath id="clip-path-8">
      <path id="Path_37" data-name="Path 37" d="M-37,804.5H1427.147V-332H-37Z" transform="translate(37 332)" fill="#fff"/>
    </clipPath>
  </defs>
  <g id="Group_41" data-name="Group 41" transform="translate(0 52.187)" clip-path="url(#clip-path)">
    <g id="Group_40" data-name="Group 40" transform="translate(-69.369 -481.449)" clip-path="url(#clip-path-2)">
      <path id="Path_27" data-name="Path 27" d="M-4.645-77.743H65.339V26.518H-4.645Z" transform="translate(64.729 549.907)" fill="#fff"/>
    </g>
  </g>
  <g id="Group_43" data-name="Group 43" transform="translate(64.633 51.249)" clip-path="url(#clip-path-3)">
    <g id="Group_42" data-name="Group 42" transform="translate(-134.567 -480.972)" clip-path="url(#clip-path-2)">
      <path id="Path_30" data-name="Path 30" d="M30.464-78H233.007V74.322H30.464Z" transform="translate(94.819 549.687)" fill="#fff"/>
    </g>
  </g>
  <g id="Group_45" data-name="Group 45" transform="translate(254.069 53.029)" clip-path="url(#clip-path-5)">
    <g id="Group_44" data-name="Group 44" transform="translate(-324.856 -482.217)" clip-path="url(#clip-path-2)">
      <path id="Path_33" data-name="Path 33" d="M132.933-77.329h110.5V8.117h-110.5Z" transform="translate(182.638 550.261)" fill="#fff"/>
    </g>
  </g>
  <g id="Group_47" data-name="Group 47" transform="translate(22.786 0)" clip-path="url(#clip-path-7)">
    <g id="Group_46" data-name="Group 46" transform="translate(-91.74 -443.578)" clip-path="url(#clip-path-8)">
      <path id="Path_36" data-name="Path 36" d="M7.625-98.136H339.279v41.6H7.625Z" transform="translate(74.872 532.429)" fill="#fff"/>
    </g>
  </g>
</svg>
