<svg id="Group_51" data-name="Group 51" xmlns="http://www.w3.org/2000/svg" xmlns:xlink="http://www.w3.org/1999/xlink" width="264" height="141" viewBox="0 0 264 141">
  <defs>
    <clipPath id="clip-path">
      <path id="Path_29" data-name="Path 29" d="M24.409-7.076V-15.07c8.922-1.071,15.346-6.424,15.346-15.132,0-4.5-1.213-8.137-3.926-10.707-2.141-2-5.068-3.283-9.707-4l-2.712-.428v-12.42c2.926.214,6.424,1.142,8.779,3.426l6.281-6.21c-3.854-3.712-8.28-5.5-14.061-5.853v-6.353H17.2v6.424c-9.279,1-14.846,7.066-14.846,15.275,0,4.283,1.213,7.495,3.64,9.921,2.141,2.141,5.567,3.712,9.85,4.283l2.284.286v12.919c-4.283-.143-8.351-1.285-11.349-4.283L.355-21.494c4.64,4.711,9.993,6.5,16.845,6.709v7.709ZM18.128-45.762a8.415,8.415,0,0,1-4.711-2,4.9,4.9,0,0,1-1.5-3.64c0-3.141,2.07-5.71,6.21-6.281ZM23.41-23.778V-36.055c1.856.286,3.64.5,5.068,1.856a5.658,5.658,0,0,1,1.57,4.283C30.048-26.419,27.692-24.278,23.41-23.778Z" transform="translate(-0.355 72.743)" fill="#fff"/>
    </clipPath>
    <clipPath id="clip-path-2">
      <path id="Path_28" data-name="Path 28" d="M-37,538.937H1090.1V-332H-37Z" transform="translate(37 332)" fill="#fff"/>
    </clipPath>
    <clipPath id="clip-path-3">
      <path id="Path_32" data-name="Path 32" d="M67.155,29.5l32.976-84.939v-16.7H35.464v32.691h17.7V-55.441H80L47.027,29.5Zm79.314,0,21.556-43.968c4.568-9.279,8.423-17.844,8.423-27.123,0-20.128-13.7-31.406-31.691-31.406s-31.692,11.706-31.692,31.691c0,18.844,13.133,30.121,26.838,30.121a20.107,20.107,0,0,0,7.566-1.285L126.341,29.5Zm-1.713-56.1c-7.852,0-13.134-5.853-13.134-14.846,0-9.422,5.567-14.846,13.134-14.846s13.133,5.425,13.133,14.846S152.322-26.6,144.757-26.6Z" transform="translate(-35.464 73)" fill="#fff"/>
    </clipPath>
    <clipPath id="clip-path-5">
      <path id="Path_35" data-name="Path 35" d="M154.635-21.08l10.778-21.984c2.284-4.64,4.211-8.922,4.211-13.562,0-10.064-6.852-15.7-15.846-15.7s-15.846,5.853-15.846,15.846c0,9.422,6.567,15.061,13.419,15.061a10.053,10.053,0,0,0,3.783-.642L144.571-21.08Zm-.857-28.051c-3.926,0-6.567-2.926-6.567-7.423,0-4.711,2.784-7.423,6.567-7.423s6.567,2.712,6.567,7.423S157.561-49.132,153.778-49.132ZM193.393-21.08,204.17-43.065c2.284-4.64,4.211-8.922,4.211-13.562,0-10.064-6.852-15.7-15.846-15.7S176.69-66.476,176.69-56.484c0,9.422,6.567,15.061,13.419,15.061a10.052,10.052,0,0,0,3.783-.642L183.328-21.08Zm-.857-28.051c-3.926,0-6.567-2.926-6.567-7.423,0-4.711,2.784-7.423,6.567-7.423s6.567,2.712,6.567,7.423S196.319-49.132,192.536-49.132Z" transform="translate(-137.933 72.329)" fill="#fff"/>
    </clipPath>
    <clipPath id="clip-path-7">
      <path id="Path_38" data-name="Path 38" d="M15.982-75.635v-7.045h6.786V-85.7H15.982v-4.266h7.969V-92.99H12.625v17.355Zm14.276,0V-92.99H26.9v17.355Zm7.394,0v-6.923h2.415l3.357,6.923h3.888l-3.84-7.483a4.67,4.67,0,0,0,3.139-4.558,5.22,5.22,0,0,0-5.579-5.314H34.3v17.355Zm3.164-9.75H37.652v-4.583h3.164a2.251,2.251,0,0,1,2.439,2.291A2.251,2.251,0,0,1,40.816-85.385Zm14.035,9.9c3.6,0,6.375-1.9,6.375-5.265A4.886,4.886,0,0,0,59.9-84.434a5.659,5.659,0,0,0-3.284-1.341l-2.029-.293a2.944,2.944,0,0,1-1.594-.683,1.683,1.683,0,0,1-.507-1.243c0-1.194.869-2.194,2.656-2.194a4.756,4.756,0,0,1,3.526,1.194l2.125-2.121a7.327,7.327,0,0,0-5.554-2.023c-3.719,0-5.989,2.169-5.989,5.265a4.611,4.611,0,0,0,1.232,3.413,5.806,5.806,0,0,0,3.333,1.438l2.077.293a2.549,2.549,0,0,1,1.521.609,1.943,1.943,0,0,1,.531,1.463c0,1.389-1.063,2.145-3.043,2.145a5.6,5.6,0,0,1-4.154-1.463L48.572-77.78C50.262-76.049,52.242-75.488,54.851-75.488Zm16.136-.146V-89.968h4.492V-92.99H63.138v3.023H67.63v14.333Zm15.174.146c3.6,0,6.375-1.9,6.375-5.265a4.886,4.886,0,0,0-1.328-3.681,5.659,5.659,0,0,0-3.284-1.341l-2.029-.293A2.944,2.944,0,0,1,84.3-86.75a1.683,1.683,0,0,1-.507-1.243c0-1.194.869-2.194,2.656-2.194a4.756,4.756,0,0,1,3.526,1.194L92.1-91.113a7.327,7.327,0,0,0-5.554-2.023c-3.719,0-5.989,2.169-5.989,5.265a4.611,4.611,0,0,0,1.232,3.413,5.806,5.806,0,0,0,3.333,1.438l2.077.293a2.549,2.549,0,0,1,1.521.609,1.943,1.943,0,0,1,.531,1.463c0,1.389-1.063,2.145-3.043,2.145a5.6,5.6,0,0,1-4.154-1.463L79.882-77.78C81.572-76.049,83.552-75.488,86.16-75.488Zm20.893-.146v-3.023H99.084v-4.217h6.786V-85.9H99.084v-4.071h7.969V-92.99H95.728v17.355Zm9.881,0V-89.968h4.492V-92.99h-12.34v3.023h4.492v14.333Zm18.627.146a6.188,6.188,0,0,0,4.637-1.9c1.66-1.675,1.713-3.728,1.715-6.519v-.4c0-3,.024-5.168-1.715-6.923a6.188,6.188,0,0,0-4.637-1.9,6.243,6.243,0,0,0-4.661,1.9c-1.581,1.6-1.684,3.533-1.69,6.125v1.595c.006,2.592.11,4.53,1.69,6.125A6.243,6.243,0,0,0,135.562-75.488Zm0-3.023a2.832,2.832,0,0,1-2.173-.926c-.627-.7-.807-1.474-.82-4.5v-.374c0-3.339.169-4.144.821-4.875a2.832,2.832,0,0,1,2.173-.926,2.779,2.779,0,0,1,2.149.926c.652.731.845,1.536.845,4.875s-.193,4.144-.845,4.875A2.779,2.779,0,0,1,135.562-78.511Zm13.165,2.876v-7.045h6.786V-85.7h-6.786v-4.266H156.7V-92.99H145.371v17.355Zm27.683,0v-3.023h-7.8V-92.99h-3.357v17.355Zm4.375,0,1.038-3.071h6.11l1.014,3.071h3.5L186.172-92.99H183.54l-6.255,17.355Zm6.255-5.923h-4.274l2.173-6.313Zm12.3,6.07c3.6,0,6.375-1.9,6.375-5.265a4.886,4.886,0,0,0-1.328-3.681,5.659,5.659,0,0,0-3.284-1.341l-2.029-.293a2.944,2.944,0,0,1-1.594-.683,1.683,1.683,0,0,1-.507-1.243c0-1.194.869-2.194,2.657-2.194a4.756,4.756,0,0,1,3.526,1.194l2.125-2.121a7.327,7.327,0,0,0-5.554-2.023c-3.719,0-5.989,2.169-5.989,5.265a4.611,4.611,0,0,0,1.232,3.413,5.806,5.806,0,0,0,3.333,1.438l2.077.293a2.549,2.549,0,0,1,1.521.609,1.942,1.942,0,0,1,.531,1.463c0,1.389-1.063,2.145-3.043,2.145a5.6,5.6,0,0,1-4.154-1.463l-2.173,2.194C194.749-76.049,196.729-75.488,199.337-75.488Zm13.166-.146V-82.9h5.82v7.264h3.357V-92.99h-3.357V-85.9H212.5V-92.99h-3.357v17.355Zm24.54,0v-3.023h-7.969v-4.217h6.786V-85.9h-6.786v-4.071h7.969V-92.99H225.717v17.355Zm8.046.146c3.6,0,6.375-1.9,6.375-5.265a4.886,4.886,0,0,0-1.328-3.681,5.659,5.659,0,0,0-3.284-1.341l-2.029-.293a2.944,2.944,0,0,1-1.594-.683,1.683,1.683,0,0,1-.507-1.243c0-1.194.869-2.194,2.657-2.194a4.756,4.756,0,0,1,3.526,1.194l2.125-2.121a7.327,7.327,0,0,0-5.554-2.023c-3.719,0-5.989,2.169-5.989,5.265a4.611,4.611,0,0,0,1.232,3.413,5.806,5.806,0,0,0,3.333,1.438l2.077.293a2.549,2.549,0,0,1,1.521.609,1.942,1.942,0,0,1,.531,1.463c0,1.389-1.063,2.145-3.043,2.145a5.6,5.6,0,0,1-4.154-1.463L238.81-77.78C240.5-76.049,242.48-75.488,245.089-75.488Z" transform="translate(-12.625 93.136)" fill="#fff"/>
    </clipPath>
    <clipPath id="clip-path-8">
      <path id="Path_37" data-name="Path 37" d="M-37,538.937H1079.643V-332H-37Z" transform="translate(37 332)" fill="#fff"/>
    </clipPath>
  </defs>
  <g id="Group_41" data-name="Group 41" transform="translate(0 39.587)" clip-path="url(#clip-path)">
    <g id="Group_40" data-name="Group 40" transform="translate(-53.16 -368.949)" clip-path="url(#clip-path-2)">
      <path id="Path_27" data-name="Path 27" d="M-4.645-77.743H48.986v79.9H-4.645Z" transform="translate(50.689 439.576)" fill="#fff"/>
    </g>
  </g>
  <g id="Group_43" data-name="Group 43" transform="translate(49.071 38.502)" clip-path="url(#clip-path-3)">
    <g id="Group_42" data-name="Group 42" transform="translate(-103.123 -368.583)" clip-path="url(#clip-path-2)">
      <path id="Path_30" data-name="Path 30" d="M30.464-78H185.679V38.729H30.464Z" transform="translate(65.544 439.467)" fill="#fff"/>
    </g>
  </g>
  <g id="Group_45" data-name="Group 45" transform="translate(193.551 40.292)" clip-path="url(#clip-path-5)">
    <g id="Group_44" data-name="Group 44" transform="translate(-248.946 -369.537)" clip-path="url(#clip-path-2)">
      <path id="Path_33" data-name="Path 33" d="M132.933-77.329h84.68v65.48h-84.68Z" transform="translate(108.898 439.751)" fill="#fff"/>
    </g>
  </g>
  <g id="Group_47" data-name="Group 47" transform="translate(17.462 0)" clip-path="url(#clip-path-7)">
    <g id="Group_46" data-name="Group 46" transform="translate(-69.966 -339.927)" clip-path="url(#clip-path-8)">
      <path id="Path_36" data-name="Path 36" d="M7.625-98.136H260.563v31.879H7.625Z" transform="translate(55.292 430.948)" fill="#fff"/>
    </g>
  </g>
</svg>
